<svg id="Layer_1" data-name="Layer 1" xmlns="http://www.w3.org/2000/svg" viewBox="0 0 989.8 219.04"><defs><style>.cls-1{fill:#2f3184;}</style></defs><title>BWLogo_blue</title><path class="cls-1" d="M379.07,503.61h27.75c34.77,0,36.11,24.91,36.11,29.39,0,13-8.2,19.1-12.08,22.23a28.63,28.63,0,0,1,18.35,27.15c0,10.6-4.93,20.3-12.68,25.52-9.4,5.52-16.71,6.27-29.7,6.12H379.07Zm11,47.59H404c8.65,0,13.58-.45,18.95-3.13s8.95-9,8.95-15.52a17.86,17.86,0,0,0-4.62-12.08c-4.33-4.93-11-6.87-22.38-6.87H390.11Zm0,52.82h15.52c9.25,0,14.92-.45,20.89-2.84,6.86-2.83,11.64-10.44,11.64-18.8a20.37,20.37,0,0,0-13-18.65c-5.22-2.08-9.7-2.53-21.49-2.53H390.11Z" transform="translate(-110.51 -481.4)"/><path class="cls-1" d="M465.62,503.61H526v10H476.66v39.69H524.4v10H476.66V604H526v10H465.62Z" transform="translate(-110.51 -481.4)"/><path class="cls-1" d="M547.08,503.61h28c14.78,0,22.09,1.79,27.16,4.17A34.21,34.21,0,0,1,622,539.27c0,16-11.48,32.22-32.82,33.57L620.34,614H606.47L569,564c14,0,18.8-.15,23.72-1.64,12.09-3.43,18.2-13.58,18.2-23.42,0-8.66-4.92-17.61-12.08-21.19-6.57-3.43-12.24-4.18-21.49-4.18H558.12V614h-11Z" transform="translate(-110.51 -481.4)"/><path class="cls-1" d="M640.79,503.61h11V567h.3l50.58-63.41h14.17l-43.71,53.86L716.88,614H703l-36.86-47.9-14.32,17.61V614h-11Z" transform="translate(-110.51 -481.4)"/><path class="cls-1" d="M732.7,583.13c.6,13.88,9.4,22.83,23,22.83,11.64,0,22.23-9,22.23-21.93,0-17-17.16-21.34-24.62-23.58-10-3-28.65-7.16-28.65-29.09,0-17.16,13.58-29.69,31-29.69,18.05,0,30.58,13.87,30.58,30h-11a19.91,19.91,0,0,0-19.54-20c-12.68,0-20,9.7-20,19.25,0,13.43,11.78,16.56,26.25,20.74,27.16,7.31,27,28.65,27,31.93,0,17-13.73,32.38-33.27,32.38-14.33,0-33.57-8.51-34-32.83Z" transform="translate(-110.51 -481.4)"/><path class="cls-1" d="M805.52,503.61h11v48.64H873.7V503.61h11V614h-11V562.24H816.56V614h-11Z" transform="translate(-110.51 -481.4)"/><path class="cls-1" d="M908.92,503.61h11V614h-11Z" transform="translate(-110.51 -481.4)"/><path class="cls-1" d="M943.24,503.61h28c14.77,0,22.08,1.79,27.15,4.17a34.2,34.2,0,0,1,19.7,31.49c0,16-11.49,32.22-32.83,33.57L1016.49,614h-13.87l-37.45-50c14,0,18.8-.15,23.72-1.64C1001,559,1007.1,548.81,1007.1,539c0-8.66-4.93-17.61-12.09-21.19-6.57-3.43-12.23-4.18-21.48-4.18H954.28V614h-11Z" transform="translate(-110.51 -481.4)"/><path class="cls-1" d="M1035.3,503.61h60.43v10h-49.39v39.69h47.75v10h-47.75V604h49.39v10H1035.3Z" transform="translate(-110.51 -481.4)"/><path class="cls-1" d="M417.53,697.61l-10.25-39.54h-.15l-10.25,39.54h-7.27L373.78,641h8.57l10.78,42.6h.15L404.22,641h6l10.78,42.3h.15l11-42.3h8.41l-15.83,56.6Z" transform="translate(-110.51 -481.4)"/><path class="cls-1" d="M483.1,697.61l-6.28-16.67H456.48l-6.27,16.67h-8.72L463,641h7.42l21.49,56.6ZM474,673.36l-7.19-21.64h-.15l-7.27,21.64Z" transform="translate(-110.51 -481.4)"/><path class="cls-1" d="M501.91,697.61V641h8.27v49h19.65v7.57Z" transform="translate(-110.51 -481.4)"/><path class="cls-1" d="M537.87,641h18.35c11.78,0,18.82,4.51,23.1,10.4a32,32,0,0,1,5.81,18.05c0,7.65-2.9,15.84-7.11,20-6.5,6.42-14.15,8.18-22.1,8.18h-18Zm8.26,49H556c10,0,20.88-5,20.88-20.58,0-8.56-5.27-20.88-20.72-20.88h-10Z" transform="translate(-110.51 -481.4)"/><path class="cls-1" d="M624.3,698.68a29.37,29.37,0,1,1,29.45-29.22A29.44,29.44,0,0,1,624.3,698.68Zm0-51.17c-14.61,0-21.19,12.78-21.19,21.8,0,9.26,6.66,21.8,21.19,21.8s21.19-12.7,21.19-21.57C645.49,659.52,638.37,647.51,624.3,647.51Z" transform="translate(-110.51 -481.4)"/><path class="cls-1" d="M691.77,697.61,673.1,671.38H673v26.23h-8.26V641H682.2c8,0,12.09,1.91,15.07,4.74,3.6,3.45,5.2,8.65,5.2,13.39,0,15-12.54,17.36-16.21,17.36l15.83,21.11ZM673,670.23h5.66c3.36,0,15.6-.15,15.6-11.09,0-4.74-3.21-10.56-12.54-10.56H673Z" transform="translate(-110.51 -481.4)"/><path class="cls-1" d="M713.18,697.61V641h28.61v7.57H721.44v17h20.35v7.58H721.44v24.47Z" transform="translate(-110.51 -481.4)"/><path class="cls-1" d="M782,680.86c0,1.91.84,10.25,9.17,10.25,5.21,0,9.11-3.59,9.11-9.56,0-6.35-5.2-7.73-9.11-9.26-7.57-2.9-9.4-3.82-12-6.34s-3.83-6.66-3.83-10.64a15.51,15.51,0,0,1,15.83-15.37c9.41,0,16.22,6.2,16.22,15.76h-8.26c0-6.28-4.59-8.19-8-8.19-4.89,0-7.57,4.44-7.57,7.73,0,5.43,5.13,6.88,7.57,7.8,7.12,2.68,17.37,4.89,17.37,18.51,0,9.87-7,17.13-17.37,17.13-7.8,0-17.43-5.2-17.43-17.82Z" transform="translate(-110.51 -481.4)"/><path class="cls-1" d="M861.73,655.47c-1.68-1.92-6.73-8-15.91-8-11.78,0-21,9.72-21,21.65,0,12.16,9.8,22,20.89,22a20.49,20.49,0,0,0,15.45-7.5h10.17a29.15,29.15,0,0,1-25.7,15.07c-16.06,0-29.07-13.54-29.07-29.6a29,29,0,0,1,29.15-29.14A30.09,30.09,0,0,1,863,645.45a28.42,28.42,0,0,1,8.72,10Z" transform="translate(-110.51 -481.4)"/><path class="cls-1" d="M913.82,697.61V673H890.49v24.63h-8.26V641h8.26v24.4h23.33V641h8.26v56.6Z" transform="translate(-110.51 -481.4)"/><path class="cls-1" d="M963.16,698.68a29.37,29.37,0,1,1,29.45-29.22A29.44,29.44,0,0,1,963.16,698.68Zm0-51.17c-14.61,0-21.19,12.78-21.19,21.8,0,9.26,6.66,21.8,21.19,21.8s21.19-12.7,21.19-21.57C984.35,659.52,977.23,647.51,963.16,647.51Z" transform="translate(-110.51 -481.4)"/><path class="cls-1" d="M1030.93,698.68a29.37,29.37,0,1,1,29.45-29.22A29.43,29.43,0,0,1,1030.93,698.68Zm0-51.17c-14.61,0-21.18,12.78-21.18,21.8,0,9.26,6.65,21.8,21.18,21.8s21.19-12.7,21.19-21.57C1052.12,659.52,1045,647.51,1030.93,647.51Z" transform="translate(-110.51 -481.4)"/><path class="cls-1" d="M1072.39,697.61V641h8.26v49h19.66v7.57Z" transform="translate(-110.51 -481.4)"/><path class="cls-1" d="M330,577.22c-1.13-7.92-2.22-15.85-3.36-23.78a121.21,121.21,0,0,0-3.89-18.25c-3.39-11.1-10-19.8-19.22-26.72A114.31,114.31,0,0,0,284,496.79a169.06,169.06,0,0,0-28.37-10.62A135.06,135.06,0,0,0,235,482a94.48,94.48,0,0,0-31.5,1.6,152.51,152.51,0,0,0-22.53,7.28,112.9,112.9,0,0,0-14.79,7.22,128.83,128.83,0,0,0-14,9.27,115,115,0,0,0-13.75,12.35,76.72,76.72,0,0,0-10.79,13.85c-3,5.06-5.59,10.3-8.2,15.54a71.88,71.88,0,0,0-6,18.36,189,189,0,0,0-2.76,26,97.67,97.67,0,0,0,2.61,29.15,84.53,84.53,0,0,0,8,20.53A92.28,92.28,0,0,0,135,661.83a117.19,117.19,0,0,0,10.43,9.76c.53.5,1,.93,1.61,1.45a.61.61,0,0,1,0-.13c2.32,1.86,4.69,3.66,7.17,5.32,5.18,3.51,10.54,6.77,15.93,10a70.38,70.38,0,0,0,19.76,8,102.81,102.81,0,0,0,14.15,2.43c9.51.87,19.06,1.36,24.89,1.75,11.32.19,18.86-.3,26.31-1.89A70.21,70.21,0,0,0,277,689.94a99.75,99.75,0,0,0,13.49-10,123.53,123.53,0,0,0,19.9-21.78,140.07,140.07,0,0,0,9.89-16.08,114.47,114.47,0,0,0,9.26-22,73.4,73.4,0,0,0,2.58-19.27C332.21,592.9,331.15,585.06,330,577.22ZM183.25,495.87a71.65,71.65,0,0,1,25.89-6c10.33-.36,20.66-.45,31-.33,7.46.09,14.64,2,21.65,4.52a138,138,0,0,1,30.88,16.23A57.71,57.71,0,0,1,309,527.39a81.71,81.71,0,0,1,10.24,24.86,150.72,150.72,0,0,1,3,15.11c.73,5.65,1.23,11.33,1.73,17-1.3-1.82-2.65-3.62-4.11-5.37a176,176,0,0,0-25-24.37,260,260,0,0,0-38.49-25.9,206.91,206.91,0,0,0-29.34-13.49,144.72,144.72,0,0,0-47.49-8.81c-5.23-.07-10.43.15-15.61.53A104.94,104.94,0,0,1,183.25,495.87ZM150.53,667.35c1.74-2.08,3.72-4.08,4.9-5.37a11,11,0,0,1,1.82-1.41c1.61-1.16,3.29-2.23,4.83-3.48a5.66,5.66,0,0,1,5.77-1c4.43,1.51,8.1,4.36,11.9,7a24.56,24.56,0,0,1,4.26,3.27,7.78,7.78,0,0,1,2.1,3.92c.58,4.67.9,9.38,1.13,14.09a6.52,6.52,0,0,1-.67,3.2,100.26,100.26,0,0,1-9.73-4c1.6-3.67,1.06-9.1-1.23-12.18a48.5,48.5,0,0,0-4.65-3.48,9.43,9.43,0,0,0-13.2,4.66C155.3,670.86,152.88,669.16,150.53,667.35Zm19.8,12.79c-3.64-2.06-7.24-4.19-10.75-6.45.91-3.34,5.45-5.91,8.61-4.5,1.88.85,5,3.43,4.85,3.57,3.94,2.09,3.22,5.19,2,8.33a12.25,12.25,0,0,1-.58,1.28Q172.39,681.31,170.33,680.14Zm18.7,8.24c1.53-2.61,1.76-5.84.6-9.65a14.56,14.56,0,0,1-.58-8.15c.59-2.22-.32-3.92-1.86-5.37A23.25,23.25,0,0,0,184.6,663q-6.18-4.31-12.42-8.52a9.09,9.09,0,0,0-10.53-.27,31.67,31.67,0,0,0-9,8.12c-.68.92-2.09,2.37-3.51,3.9l-1.48-1.19a81.75,81.75,0,0,1-7.44-7c.91-.79,1.84-1.54,2.51-2.17,1.5-1.4,3.07-2.72,4.61-4.08l-.16-.22c2.77-1.93,5.47-4,8.34-5.77,5.27-3.28,10.78-3.11,16.35-.7a50.53,50.53,0,0,1,15.2,10.29,64.17,64.17,0,0,1,6.66,8c2.17,2.92,2.61,6.48,3.27,10,1.09,5.76.38,11.36-1,16.9Q192.48,689.5,189,688.38Zm9.49,2.56A51.88,51.88,0,0,0,199.76,668a11,11,0,0,0-3.17-6.17c-1.52-1.53-2.87-3.21-4.3-4.83-5.62-7.8-13.21-12.95-22.08-16.34-5.07-1.94-10.21-2.19-14.72,1.11-6,4.39-11.8,9.06-17.51,13.83a69.52,69.52,0,0,1-8.09-11.48c-.09-.15-.16-.31-.24-.47a38.94,38.94,0,0,1,11.2-7.3c5.9-2.73,11.91-5.3,18-7.5a21.35,21.35,0,0,1,18.18,1.49,103.53,103.53,0,0,1,22.82,16.86,29.51,29.51,0,0,1,6.54,9.8,29.08,29.08,0,0,0,2.74,5.32c2.49,3.68,2.91,7.73,2.93,12a49,49,0,0,1-3.58,18.25l-1.64-.19C204,692.05,201.27,691.54,198.52,690.94Zm14.93,2.22c.27-.58.55-1.16.81-1.76a45.43,45.43,0,0,0,4.17-19.26c-.07-3.92-1-7.41-3.83-10.4a28.86,28.86,0,0,1-3.65-5.82c-.7-1.25-1.08-2.67-1.77-3.92-3.67-6.78-8.84-12.31-14.61-17.34a30.31,30.31,0,0,0-14-7,25,25,0,0,1-4.57-1.34,25.34,25.34,0,0,0-17.8-.55c-5.57,1.78-11,4-16.47,6a53.27,53.27,0,0,0-12.29,6.3c-.66.47-1.29,1-1.89,1.48a105.72,105.72,0,0,1-4.72-12.18c-.16-.48-.29-1-.44-1.44a54.21,54.21,0,0,1,14.26-9.5,36.4,36.4,0,0,1,11.15-2.79c5.21-.57,10.4-1.22,15.62-1.58,9.18-.63,17.55,2.09,25.41,6.59,5.43,3.11,10.79,6.34,16.26,9.38a15,15,0,0,1,6.21,6.42c2.55,5,5.78,9.46,10.49,12.67,4.47,3,6.22,7.63,7.24,12.6,1.09,5.33,2.34,10.65,3,16a41.23,41.23,0,0,1-.87,14.37,37.84,37.84,0,0,1-1.28,4.32c-2.13-.06-4.26-.16-6.38-.33C220.15,693.81,216.8,693.51,213.45,693.16Zm21.45,1.25a46.4,46.4,0,0,0,1.16-12.93c-.09-2.7-.9-5.38-1-8.09a61.7,61.7,0,0,0-13.93-37.25,124.9,124.9,0,0,0-17.59-17.43c-5-4.15-10.41-7.59-16.81-9a147.54,147.54,0,0,0-15.32-2.59c-4.42-.49-9-1-13.33-.38-6.22.84-12.32,2.63-18.45,4.09-7.45,1.76-13.27,6.17-18.32,11.55a124.2,124.2,0,0,1-3-13.1c2.09-1.71,4-3.63,6-5.55,3.87-3.81,7.55-7.82,12.26-10.71,4.91-3,10.23-3.83,15.82-3.43s11,1.06,16.57,1.35c3.42.18,6.87-.08,10.31-.21a32.33,32.33,0,0,1,22.48,7.69,301.53,301.53,0,0,1,30,27.82,100,100,0,0,1,17.9,26.4c4,8.77,6.23,18,5.59,27.63a54.73,54.73,0,0,1-2,10.24c-.14.52-.28,1-.43,1.55-2.08.52-4.19,1-6.33,1.31A86.67,86.67,0,0,1,234.9,694.41Zm41.24-12.63a73.28,73.28,0,0,1-15.93,8c.29-2.35.5-4.72.68-7.08a80.74,80.74,0,0,0-1-22.7,69.94,69.94,0,0,0-15.26-30.7c-4.71-5.68-9.88-11-15.13-16.2C222.9,606.57,216,600.24,208.25,595s-16.13-8.83-25.58-9.27a322.28,322.28,0,0,0-38.94.4c-4.63.34-9.06,1.29-12.67,4.48-2.89,2.54-5.85,5-8.53,7.77-1.63,1.67-3.34,3.24-5.08,4.78a76.59,76.59,0,0,1,.07-16.51c.28-2.52.54-5,.81-7.55a155.28,155.28,0,0,1,19.5-7.26,102.33,102.33,0,0,1,33-3.64c11.64.55,22.67,3.64,33.58,7.33,4.47,1.52,9,2.91,13.34,4.74,9.32,3.91,16.86,10.27,23.56,17.74q5.8,7.57,11.62,15.15c4.38,5.71,8.8,11.38,13.15,17.11,5.62,7.42,10.15,15.41,12.54,24.49a59.85,59.85,0,0,1,1.52,20.94c-.08.8-.15,2.14-.23,3.37C278.69,680,277.44,680.91,276.14,681.78Zm10.93-8.27a84.66,84.66,0,0,0-7-29.55A137.09,137.09,0,0,0,266,619.82c-3.91-5.54-8-11-12-16.42a109.87,109.87,0,0,0-17.47-18.59A168.27,168.27,0,0,0,213.38,569a33.86,33.86,0,0,0-15.79-4.64c-6.2-.33-12.43-.27-18.61-.82-9.63-.87-19.22-1.76-28.9-1a91.76,91.76,0,0,0-30.69,7.88c0-.13,0-.26,0-.38a74.85,74.85,0,0,1,10.9-29A121.29,121.29,0,0,1,171.5,541a387.46,387.46,0,0,1,39.27,8.41c8.45,2.24,16.81,4.83,24.48,9.06a88.49,88.49,0,0,1,12.65,8.41,162.54,162.54,0,0,1,34.83,38.83,158.85,158.85,0,0,1,16.74,33.52c1.87,5.32,3.58,10.67,5.06,16.08-2.09,2.7-4.28,5.32-6.62,7.83A130.56,130.56,0,0,1,287.07,673.51Zm25.72-30.44c-1.16,2-2.41,4-3.7,6-1.24-4.13-2.62-8.23-4.19-12.28a165.35,165.35,0,0,0-26.57-45.2c-6.75-8.26-14.09-16.06-21.43-23.82a76.05,76.05,0,0,0-19.29-15.13c-9.19-4.94-19.09-7.74-29.25-9.76-10.42-2.07-20.87-4-31.29-6.06-10.74-2.1-21.45-4.28-32.42-4.79q-3.87-.18-7.68,0c.75-.93,1.52-1.84,2.31-2.75a134.67,134.67,0,0,1,17.53-16.83,108.44,108.44,0,0,1,29.41,1.76c15.86,3.2,31.65,6.82,47.34,10.75,11.34,2.85,21.59,8.38,31.34,14.76,15.4,10.06,28.82,22.41,41.17,35.95a90.23,90.23,0,0,1,18.28,31c-.22,2.73-.52,5.43-1,8.09A88.26,88.26,0,0,1,312.79,643.07Z" transform="translate(-110.51 -481.4)"/></svg>